<svg width="159" height="159" viewBox="0 0 159 159" fill="none" xmlns="http://www.w3.org/2000/svg">
<path fill-rule="evenodd" clip-rule="evenodd" d="M52.1857 52.1859C71.1799 33.1952 79.973 11.1932 71.8258 3.04601C63.6751 -5.11171 41.6625 3.68138 22.6736 22.6756C3.6829 41.668 -5.11018 63.6754 3.04401 71.8225C11.1912 79.9714 33.1985 71.1783 52.1857 52.1859Z" fill="#46CDCF"/>
<path fill-rule="evenodd" clip-rule="evenodd" d="M135.72 135.726C154.713 116.735 163.506 94.7294 155.357 86.5822C147.206 78.4298 125.21 87.2211 106.214 106.217C87.2212 125.21 78.4299 147.212 86.5753 155.357C94.7277 163.511 116.735 154.725 135.72 135.726Z" fill="#46CDCF"/>
<path fill-rule="evenodd" clip-rule="evenodd" d="M52.1857 106.219C33.1985 87.2226 11.1912 78.4295 3.04401 86.582C-5.11018 94.7291 3.6829 116.738 22.6736 135.725C41.666 154.725 63.6751 163.511 71.8258 155.358C79.98 147.206 71.1799 125.211 52.1857 106.219Z" fill="#46CDCF"/>
<path fill-rule="evenodd" clip-rule="evenodd" d="M135.72 22.677C116.735 3.68286 94.7277 -5.11199 86.5735 3.04573C78.4299 11.1929 87.2195 33.195 106.212 52.1839C125.21 71.1781 147.213 79.9712 155.357 71.8222C163.51 63.6716 154.72 41.6677 135.72 22.677Z" fill="#46CDCF"/>
<path d="M79.2022 16.8945C79.2022 51.3065 51.3005 79.2012 16.8955 79.2012C51.3075 79.2012 79.2022 107.096 79.2022 141.503C79.2022 107.096 107.095 79.2012 141.502 79.2012C107.097 79.2012 79.2022 51.3065 79.2022 16.8945Z" fill="#46CDCF"/>
</svg>
